<svg width="236" height="150" viewBox="0 0 236 150" fill="none" xmlns="http://www.w3.org/2000/svg">
<circle cx="118" cy="75" r="75" fill="#1B6EF7" fill-opacity="0.1"/>
<circle cx="118" cy="75" r="55" fill="white"/>
<circle cx="117.53" cy="74.5302" r="26.0419" fill="#1B6EF7"/>
<circle cx="117.53" cy="74.5302" r="25.0419" stroke="white" stroke-opacity="0.2" stroke-width="2"/>
<path d="M110.089 74.4126L114.911 79.8151C114.985 79.8974 115.116 79.8983 115.191 79.8171L124.971 69.1816" stroke="white" stroke-width="4.5" stroke-linecap="round"/>
<path d="M221.339 42.2984L225.728 46.7643L231.976 46.3391L227.51 50.7287L227.935 56.9762L223.546 52.5103L217.298 52.9356L221.764 48.546L221.339 42.2984Z" fill="#1B6EF7"/>
<path d="M15.0427 114.043L13.9704 120.213L17.9558 125.043L11.7863 123.97L6.95625 127.956L8.02861 121.786L4.04319 116.956L10.2127 118.029L15.0427 114.043Z" fill="#1B6EF7"/>
<path d="M203.224 139.427L203.363 143.002L206.168 145.224L202.593 145.363L200.371 148.168L200.232 144.593L197.427 142.371L201.002 142.232L203.224 139.427Z" fill="#1B6EF7"/>
<path d="M17.5977 7L18.8395 10.3559L22.1954 11.5977L18.8395 12.8395L17.5977 16.1954L16.3559 12.8395L13 11.5977L16.3559 10.3559L17.5977 7Z" fill="#1B6EF7"/>
<path d="M186.051 1.99759L186.148 4.49764L188.11 6.05119L185.609 6.14843L184.056 8.10959L183.959 5.60955L181.998 4.056L184.498 3.95876L186.051 1.99759Z" fill="#1B6EF7"/>
</svg>
